<svg id="visual" viewBox="0 0 4000 700" width="4000" height="700" xmlns="http://www.w3.org/2000/svg" xmlns:xlink="http://www.w3.org/1999/xlink" version="1.1">
<path d="M0 612L74 599.8C148 587.7 296 563.3 444.2 558.5C592.3 553.7 740.7 568.3 888.8 567.3C1037 566.3 1185 549.7 1333.2 555.2C1481.3 560.7 1629.7 588.3 1777.8 597.2C1926 606 2074 596 2222.2 588.2C2370.3 580.3 2518.7 574.7 2666.8 574C2815 573.3 2963 577.7 3111.2 579.3C3259.3 581 3407.7 580 3555.8 583.5C3704 587 3852 595 3926 599L4000 603L4000 701L3926 701C3852 701 3704 701 3555.8 701C3407.7 701 3259.3 701 3111.2 701C2963 701 2815 701 2666.8 701C2518.7 701 2370.3 701 2222.2 701C2074 701 1926 701 1777.8 701C1629.7 701 1481.3 701 1333.2 701C1185 701 1037 701 888.8 701C740.7 701 592.3 701 444.2 701C296 701 148 701 74 701L0 701Z" fill="#e38200">
<animate dur="2.9s" repeatCount="indefinite" attributeName="d" values="M0 612L74 599.8C148 587.7 296 563.3 444.2 558.5C592.3 553.7 740.7 568.3 888.8 567.3C1037 566.3 1185 549.7 1333.2 555.2C1481.3 560.7 1629.7 588.3 1777.8 597.2C1926 606 2074 596 2222.2 588.2C2370.3 580.3 2518.7 574.7 2666.8 574C2815 573.3 2963 577.7 3111.2 579.3C3259.3 581 3407.7 580 3555.8 583.5C3704 587 3852 595 3926 599L4000 603L4000 701L3926 701C3852 701 3704 701 3555.8 701C3407.7 701 3259.3 701 3111.2 701C2963 701 2815 701 2666.8 701C2518.7 701 2370.3 701 2222.2 701C2074 701 1926 701 1777.8 701C1629.7 701 1481.3 701 1333.2 701C1185 701 1037 701 888.8 701C740.7 701 592.3 701 444.2 701C296 701 148 701 74 701L0 701Z; M0 524L74 531.2C148 538.3 296 552.7 444.2 568.8C592.3 585 740.7 603 888.8 604.5C1037 606 1185 591 1333.2 591.8C1481.3 592.7 1629.7 609.3 1777.8 614.5C1926 619.7 2074 613.3 2222.2 602C2370.3 590.7 2518.7 574.3 2666.8 563.5C2815 552.7 2963 547.3 3111.2 544.5C3259.3 541.7 3407.7 541.3 3555.8 552.8C3704 564.3 3852 587.7 3926 599.3L4000 611L4000 701L3926 701C3852 701 3704 701 3555.8 701C3407.7 701 3259.3 701 3111.2 701C2963 701 2815 701 2666.8 701C2518.7 701 2370.3 701 2222.2 701C2074 701 1926 701 1777.8 701C1629.7 701 1481.3 701 1333.2 701C1185 701 1037 701 888.8 701C740.7 701 592.3 701 444.2 701C296 701 148 701 74 701L0 701Z; M0 612L74 599.8C148 587.7 296 563.3 444.2 558.5C592.3 553.7 740.7 568.3 888.8 567.3C1037 566.3 1185 549.7 1333.2 555.2C1481.3 560.7 1629.7 588.3 1777.8 597.2C1926 606 2074 596 2222.2 588.2C2370.3 580.3 2518.7 574.7 2666.8 574C2815 573.3 2963 577.7 3111.2 579.3C3259.3 581 3407.7 580 3555.8 583.5C3704 587 3852 595 3926 599L4000 603L4000 701L3926 701C3852 701 3704 701 3555.8 701C3407.7 701 3259.3 701 3111.2 701C2963 701 2815 701 2666.8 701C2518.7 701 2370.3 701 2222.2 701C2074 701 1926 701 1777.8 701C1629.7 701 1481.3 701 1333.2 701C1185 701 1037 701 888.8 701C740.7 701 592.3 701 444.2 701C296 701 148 701 74 701L0 701Z"/>
</path>

<path d="M0 589L74 593.3C148 597.7 296 606.3 444.2 609.2C592.3 612 740.7 609 888.8 616.2C1037 623.3 1185 640.7 1333.2 641.7C1481.3 642.7 1629.7 627.3 1777.8 619.5C1926 611.7 2074 611.3 2222.2 619C2370.3 626.7 2518.7 642.3 2666.8 649.5C2815 656.7 2963 655.3 3111.2 645C3259.3 634.7 3407.7 615.3 3555.8 606.3C3704 597.3 3852 598.7 3926 599.3L4000 600L4000 701L3926 701C3852 701 3704 701 3555.8 701C3407.7 701 3259.3 701 3111.2 701C2963 701 2815 701 2666.8 701C2518.7 701 2370.3 701 2222.2 701C2074 701 1926 701 1777.8 701C1629.7 701 1481.3 701 1333.2 701C1185 701 1037 701 888.8 701C740.7 701 592.3 701 444.2 701C296 701 148 701 74 701L0 701Z" fill="#a94007">
<animate dur="2.8s" repeatCount="indefinite" attributeName="d" values="M0 589L74 593.3C148 597.7 296 606.3 444.2 609.2C592.3 612 740.7 609 888.8 616.2C1037 623.3 1185 640.7 1333.2 641.7C1481.3 642.7 1629.7 627.3 1777.8 619.5C1926 611.7 2074 611.3 2222.2 619C2370.3 626.7 2518.7 642.3 2666.8 649.5C2815 656.7 2963 655.3 3111.2 645C3259.3 634.7 3407.7 615.3 3555.8 606.3C3704 597.3 3852 598.7 3926 599.3L4000 600L4000 701L3926 701C3852 701 3704 701 3555.8 701C3407.7 701 3259.3 701 3111.2 701C2963 701 2815 701 2666.8 701C2518.7 701 2370.3 701 2222.2 701C2074 701 1926 701 1777.8 701C1629.7 701 1481.3 701 1333.2 701C1185 701 1037 701 888.8 701C740.7 701 592.3 701 444.2 701C296 701 148 701 74 701L0 701Z; M0 596L74 596.5C148 597 296 598 444.2 599.7C592.3 601.3 740.7 603.7 888.8 613.2C1037 622.7 1185 639.3 1333.2 642.7C1481.3 646 1629.7 636 1777.8 630.7C1926 625.3 2074 624.7 2222.2 628.8C2370.3 633 2518.7 642 2666.8 640.2C2815 638.3 2963 625.7 3111.2 624.5C3259.3 623.3 3407.7 633.7 3555.8 640.7C3704 647.7 3852 651.3 3926 653.2L4000 655L4000 701L3926 701C3852 701 3704 701 3555.8 701C3407.7 701 3259.3 701 3111.2 701C2963 701 2815 701 2666.8 701C2518.7 701 2370.3 701 2222.2 701C2074 701 1926 701 1777.8 701C1629.7 701 1481.3 701 1333.2 701C1185 701 1037 701 888.8 701C740.7 701 592.3 701 444.2 701C296 701 148 701 74 701L0 701Z; M0 589L74 593.3C148 597.7 296 606.3 444.2 609.2C592.3 612 740.7 609 888.8 616.2C1037 623.3 1185 640.7 1333.2 641.7C1481.3 642.7 1629.7 627.3 1777.8 619.5C1926 611.7 2074 611.3 2222.2 619C2370.3 626.7 2518.7 642.3 2666.8 649.5C2815 656.7 2963 655.3 3111.2 645C3259.3 634.7 3407.7 615.3 3555.8 606.3C3704 597.3 3852 598.7 3926 599.3L4000 600L4000 701L3926 701C3852 701 3704 701 3555.8 701C3407.7 701 3259.3 701 3111.2 701C2963 701 2815 701 2666.8 701C2518.7 701 2370.3 701 2222.2 701C2074 701 1926 701 1777.8 701C1629.7 701 1481.3 701 1333.2 701C1185 701 1037 701 888.8 701C740.7 701 592.3 701 444.2 701C296 701 148 701 74 701L0 701Z"/>
</path>
</svg>