<svg id="visual" viewBox="0 0 4000 700" width="4000" height="700" xmlns="http://www.w3.org/2000/svg" xmlns:xlink="http://www.w3.org/1999/xlink" version="1.1">

<path d="M0 524L74 531.2C148 538.3 296 552.7 444.2 568.8C592.3 585 740.7 603 888.8 604.5C1037 606 1185 591 1333.2 591.8C1481.3 592.7 1629.7 609.3 1777.8 614.5C1926 619.7 2074 613.3 2222.2 602C2370.3 590.7 2518.7 574.3 2666.8 563.5C2815 552.7 2963 547.3 3111.2 544.5C3259.3 541.7 3407.7 541.3 3555.8 552.8C3704 564.3 3852 587.7 3926 599.3L4000 611L4000 701L3926 701C3852 701 3704 701 3555.8 701C3407.7 701 3259.3 701 3111.2 701C2963 701 2815 701 2666.8 701C2518.7 701 2370.3 701 2222.2 701C2074 701 1926 701 1777.8 701C1629.7 701 1481.3 701 1333.2 701C1185 701 1037 701 888.8 701C740.7 701 592.3 701 444.2 701C296 701 148 701 74 701L0 701Z" fill="#e38200">

</path>

<path d="M0 596L74 596.5C148 597 296 598 444.2 599.7C592.3 601.3 740.7 603.7 888.8 613.2C1037 622.7 1185 639.3 1333.2 642.7C1481.3 646 1629.7 636 1777.8 630.7C1926 625.3 2074 624.7 2222.2 628.8C2370.3 633 2518.7 642 2666.8 640.2C2815 638.3 2963 625.7 3111.2 624.5C3259.3 623.3 3407.7 633.7 3555.8 640.7C3704 647.7 3852 651.3 3926 653.2L4000 655L4000 701L3926 701C3852 701 3704 701 3555.8 701C3407.7 701 3259.3 701 3111.2 701C2963 701 2815 701 2666.8 701C2518.7 701 2370.3 701 2222.2 701C2074 701 1926 701 1777.8 701C1629.7 701 1481.3 701 1333.2 701C1185 701 1037 701 888.8 701C740.7 701 592.3 701 444.2 701C296 701 148 701 74 701L0 701Z" fill="#a94007">

</path>

</svg>